<svg xmlns="http://www.w3.org/2000/svg" viewBox="0 0 800 450" font-family="'JetBrains Mono',monospace"><rect width="800" height="450" fill="#F4F4F2"/>
<text x="400" y="46" text-anchor="middle" font-size="16" font-weight="700" fill="#0C0C0C">ONE CREATIVE DIES. A CREATIVE SYSTEM COMPOUNDS.</text>
<g stroke="#0C0C0C" stroke-width="1" opacity="0.1"><line x1="80" y1="120" x2="740" y2="120"/><line x1="80" y1="220" x2="740" y2="220"/><line x1="80" y1="320" x2="740" y2="320"/></g>
<path d="M90,140 C170,140 200,150 260,210 C320,270 380,330 470,360" fill="none" stroke="#FF4438" stroke-width="4" stroke-linecap="round"/>
<rect x="430" y="375" width="220" height="34" rx="17" fill="#FFFFFF" stroke="#0C0C0C" stroke-width="1.5"/><text x="540.0" y="396.68" text-anchor="middle" font-size="13" font-weight="700" fill="#FF4438">CREATIVE FATIGUE ↘</text>
<path d="M90,300 L170,170 L210,240 L290,140 L340,210 L430,120 L490,190 L590,100 L650,160 L740,80" fill="none" stroke="#00C853" stroke-width="4" stroke-linecap="round"/>
<rect x="480" y="44" width="240" height="34" rx="17" fill="#0C0C0C" stroke="#0C0C0C" stroke-width="1.5"/><text x="600.0" y="65.68" text-anchor="middle" font-size="13" font-weight="700" fill="#00C853">NEW WINNERS WEEKLY ↗</text>
<text x="90" y="424" font-size="12" font-weight="700" fill="#7A7A78">WEEK 1</text>
<text x="740" y="424" text-anchor="end" font-size="12" font-weight="700" fill="#7A7A78">WEEK 12</text>
</svg>