<svg xmlns="http://www.w3.org/2000/svg" viewBox="0 0 800 450" font-family="'JetBrains Mono',monospace"><rect width="800" height="450" fill="#F4F4F2"/>
<text x="400" y="34" text-anchor="middle" font-size="16" font-weight="700" fill="#0C0C0C">PERCENTAGE FEE VS. FLAT FEE AS SPEND DOUBLES</text>

<line x1="70" y1="380" x2="740" y2="380" stroke="#0C0C0C" stroke-width="1.5"/>

<text x="185" y="108" text-anchor="middle" font-size="12.5" font-weight="700" fill="#0C0C0C">$10,000/MO SPEND</text>

<rect x="110" y="290" width="70" height="90" fill="#2D6BFF" stroke="#0C0C0C" stroke-width="1.5"/>
<text x="145" y="278" text-anchor="middle" font-size="12.5" font-weight="700" fill="#0C0C0C">$1,500</text>
<text x="145" y="404" text-anchor="middle" font-size="11" fill="#7A7A78">15% FEE</text>

<rect x="200" y="230" width="70" height="150" fill="#FFC400" stroke="#0C0C0C" stroke-width="1.5"/>
<text x="235" y="218" text-anchor="middle" font-size="12.5" font-weight="700" fill="#0C0C0C">$2,500</text>
<text x="235" y="404" text-anchor="middle" font-size="11" fill="#7A7A78">FLAT FEE</text>

<text x="515" y="108" text-anchor="middle" font-size="12.5" font-weight="700" fill="#0C0C0C">$20,000/MO SPEND</text>

<rect x="440" y="200" width="70" height="180" fill="#FF4438" stroke="#0C0C0C" stroke-width="1.5"/>
<text x="475" y="188" text-anchor="middle" font-size="12.5" font-weight="700" fill="#0C0C0C">$3,000</text>
<text x="475" y="404" text-anchor="middle" font-size="11" fill="#7A7A78">15% FEE</text>

<rect x="530" y="230" width="70" height="150" fill="#FFC400" stroke="#0C0C0C" stroke-width="1.5"/>
<text x="565" y="218" text-anchor="middle" font-size="12.5" font-weight="700" fill="#0C0C0C">$2,500</text>
<text x="565" y="404" text-anchor="middle" font-size="11" fill="#7A7A78">FLAT FEE</text>

<path d="M145,285 L475,195" fill="none" stroke="#0C0C0C" stroke-width="1.5" stroke-dasharray="3 4"/>
<text x="660" y="170" text-anchor="middle" font-size="11.5" font-weight="700" fill="#FF4438">FEE DOUBLES</text>
<text x="660" y="186" text-anchor="middle" font-size="11.5" font-weight="700" fill="#FF4438">WITH SPEND</text>

<g font-size="12" font-weight="700" fill="#0C0C0C">
<rect x="205" y="418" width="16" height="16" fill="#2D6BFF" stroke="#0C0C0C" stroke-width="1.2"/>
<text x="228" y="430">15% FEE</text>
<rect x="330" y="418" width="16" height="16" fill="#FFC400" stroke="#0C0C0C" stroke-width="1.2"/>
<text x="353" y="430">FLAT $2,500 FEE</text>
<rect x="500" y="418" width="16" height="16" fill="#FF4438" stroke="#0C0C0C" stroke-width="1.2"/>
<text x="523" y="430">15% FEE AT $20K SPEND</text>
</g>
</svg>
