<svg xmlns="http://www.w3.org/2000/svg" viewBox="0 0 800 450" font-family="'JetBrains Mono',monospace"><rect width="800" height="450" fill="#F4F4F2"/>
<line x1="400" y1="30" x2="400" y2="420" stroke="#0C0C0C" stroke-width="1.5" stroke-dasharray="4 6" opacity="0.35"/>
<text x="200" y="52" text-anchor="middle" font-size="16" font-weight="700" fill="#7A7A78">WEEKLY "OPTIMIZATION"</text>
<text x="600" y="52" text-anchor="middle" font-size="16" font-weight="700" fill="#0C0C0C">COMPLETE REBUILD</text>
<path d="M120,240 C120,190 280,190 280,240 C280,290 120,290 120,240 Z" fill="none" stroke="#FF4438" stroke-width="4"/>
<path d="M270,215 l14,14 l-20,4 Z" fill="#FF4438"/>
<text x="200" y="246" text-anchor="middle" font-size="13" font-weight="700" fill="#0C0C0C">PAUSE · TWEAK · REPEAT</text>
<path d="M80,340 L320,336" stroke="#FF4438" stroke-width="4" stroke-linecap="round"/>
<rect x="120" y="360" width="160" height="34" rx="17" fill="#FFFFFF" stroke="#0C0C0C" stroke-width="1.5"/><text x="200.0" y="381.68" text-anchor="middle" font-size="13" font-weight="700" fill="#FF4438">FLAT RESULTS</text>
<g stroke="#0C0C0C" stroke-width="1.5">
<rect x="470" y="270" width="70" height="90" rx="8" fill="#2D6BFF"/><rect x="550" y="230" width="70" height="130" rx="8" fill="#FFC400"/><rect x="630" y="180" width="70" height="180" rx="8" fill="#00C853"/>
</g>
<path d="M480,250 L590,190 L700,120" stroke="#0C0C0C" stroke-width="3.5" stroke-linecap="round" fill="none"/>
<path d="M700,120 l-22,2 l10,-19 Z" fill="#0C0C0C"/>
<rect x="520" y="380" width="190" height="34" rx="17" fill="#0C0C0C" stroke="#0C0C0C" stroke-width="1.5"/><text x="615.0" y="401.68" text-anchor="middle" font-size="13" font-weight="700" fill="#00C853">ROAS CLIMBING ↗</text>
</svg>