<svg xmlns="http://www.w3.org/2000/svg" viewBox="0 0 800 450" font-family="'JetBrains Mono',monospace"><rect width="800" height="450" fill="#F4F4F2"/>
<text x="400" y="46" text-anchor="middle" font-size="16" font-weight="700" fill="#0C0C0C">WHERE YOUR CONVERSIONS ACTUALLY GO</text>
<line x1="400" y1="70" x2="400" y2="420" stroke="#0C0C0C" stroke-width="1.5" stroke-dasharray="4 6" opacity="0.35"/>
<text x="200" y="100" text-anchor="middle" font-size="14" font-weight="700" fill="#7A7A78">BROWSER PIXEL ONLY</text>
<path d="M120,130 L280,130 L240,180 L160,180 Z" fill="#FFFFFF" stroke="#0C0C0C" stroke-width="1.5"/>
<path d="M160,180 L240,180 L215,230 L185,230 Z" fill="#FFFFFF" stroke="#0C0C0C" stroke-width="1.5"/>
<path d="M185,230 L215,230 L204,270 L196,270 Z" fill="#FF4438" stroke="#0C0C0C" stroke-width="1.5" stroke-dasharray="3 4"/>
<circle cx="200" cy="248" r="16" fill="none" stroke="#FF4438" stroke-width="2.5"/>
<line x1="190" y1="238" x2="210" y2="258" stroke="#FF4438" stroke-width="2.5"/>
<line x1="210" y1="238" x2="190" y2="258" stroke="#FF4438" stroke-width="2.5"/>
<rect x="105" y="320" width="190" height="34" rx="17" fill="#FFFFFF" stroke="#0C0C0C" stroke-width="1.5"/><text x="200.0" y="341.68" text-anchor="middle" font-size="12" font-weight="700" fill="#FF4438">SOME LOST TO BLOCKERS + ITP</text>
<text x="600" y="100" text-anchor="middle" font-size="14" font-weight="700" fill="#0C0C0C">PIXEL + SERVER-SIDE (CAPI)</text>
<path d="M520,130 L680,130 L640,180 L560,180 Z" fill="#2D6BFF" stroke="#0C0C0C" stroke-width="1.5"/>
<path d="M560,180 L640,180 L615,230 L585,230 Z" fill="#2D6BFF" stroke="#0C0C0C" stroke-width="1.5"/>
<path d="M585,230 L615,230 L604,270 L596,270 Z" fill="#00C853" stroke="#0C0C0C" stroke-width="1.5"/>
<path d="M592,249 l6,6 l12,-13" fill="none" stroke="#FFFFFF" stroke-width="2.5" stroke-linecap="round" stroke-linejoin="round"/>
<rect x="500" y="320" width="200" height="34" rx="17" fill="#0C0C0C" stroke="#0C0C0C" stroke-width="1.5"/><text x="600.0" y="341.68" text-anchor="middle" font-size="12" font-weight="700" fill="#00C853">DEDUPLICATED, CAPTURED</text>
<text x="400" y="410" text-anchor="middle" font-size="11" fill="#7A7A78">Same funnel. Different amount of it Smart Bidding can actually see.</text>
</svg>
