<svg xmlns="http://www.w3.org/2000/svg" viewBox="0 0 800 450" font-family="'JetBrains Mono',monospace"><rect width="800" height="450" fill="#F4F4F2"/>
<text x="200" y="52" text-anchor="middle" font-size="16" font-weight="700" fill="#7A7A78">BEFORE · CAMPAIGN SOUP</text>
<text x="600" y="52" text-anchor="middle" font-size="16" font-weight="700" fill="#0C0C0C">AFTER · CLEAN INTENT SEGMENTATION</text>
<line x1="400" y1="30" x2="400" y2="420" stroke="#0C0C0C" stroke-width="1.5" stroke-dasharray="4 6" opacity="0.35"/>
<g fill="none" stroke="#FF4438" stroke-width="2.5" opacity="0.85">
<path d="M90,120 C220,180 120,300 260,340"/><path d="M300,110 C150,200 320,260 130,360"/><path d="M180,90 C90,240 300,180 210,380"/>
</g>
<g><rect x="70" y="90" width="110" height="32" rx="16" fill="#FFFFFF" stroke="#0C0C0C" stroke-width="1.5"/><text x="125.0" y="110.32" text-anchor="middle" font-size="12" font-weight="700" fill="#0C0C0C">CAMPAIGN A</text><rect x="220" y="140" width="110" height="32" rx="16" fill="#FFFFFF" stroke="#0C0C0C" stroke-width="1.5"/><text x="275.0" y="160.32" text-anchor="middle" font-size="12" font-weight="700" fill="#0C0C0C">CAMPAIGN B</text><rect x="110" y="330" width="130" height="32" rx="16" fill="#FFFFFF" stroke="#0C0C0C" stroke-width="1.5"/><text x="175.0" y="350.32" text-anchor="middle" font-size="12" font-weight="700" fill="#FF4438">OVERLAP $$$</text></g>
<g>
<rect x="450" y="100" width="140" height="40" rx="20" fill="#2D6BFF" stroke="#0C0C0C" stroke-width="1.5"/><text x="520.0" y="125.04" text-anchor="middle" font-size="14" font-weight="700" fill="#FFFFFF">BRAND</text><rect x="610" y="100" width="140" height="40" rx="20" fill="#00C853" stroke="#0C0C0C" stroke-width="1.5"/><text x="680.0" y="124.68" text-anchor="middle" font-size="13" font-weight="700" fill="#FFFFFF">NON-BRAND</text>
<rect x="450" y="170" width="140" height="40" rx="20" fill="#FFC400" stroke="#0C0C0C" stroke-width="1.5"/><text x="520.0" y="194.68" text-anchor="middle" font-size="13" font-weight="700" fill="#0C0C0C">SHOPPING</text><rect x="610" y="170" width="140" height="40" rx="20" fill="#FF4438" stroke="#0C0C0C" stroke-width="1.5"/><text x="680.0" y="195.04" text-anchor="middle" font-size="14" font-weight="700" fill="#FFFFFF">PMAX</text>
</g>
<g stroke="#0C0C0C" stroke-width="1.5"><line x1="520" y1="140" x2="590" y2="230"/><line x1="680" y1="140" x2="620" y2="230"/><line x1="520" y1="210" x2="590" y2="240"/><line x1="680" y1="210" x2="620" y2="240"/></g>
<rect x="505" y="235" width="200" height="44" rx="22" fill="#0C0C0C" stroke="#0C0C0C" stroke-width="1.5"/><text x="605.0" y="262.4" text-anchor="middle" font-size="15" font-weight="700" fill="#00C853">CLEAN SIGNALS</text>
<text x="605" y="330" text-anchor="middle" font-size="13" font-weight="700" fill="#7A7A78">ONE JOB PER CAMPAIGN.</text>
<text x="605" y="352" text-anchor="middle" font-size="13" font-weight="700" fill="#7A7A78">SMART BIDDING LEARNS FASTER.</text>
</svg>