<svg xmlns="http://www.w3.org/2000/svg" viewBox="0 0 800 450" font-family="'JetBrains Mono',monospace"><rect width="800" height="450" fill="#F4F4F2"/>
<text x="400" y="42" text-anchor="middle" font-size="16" font-weight="700" fill="#0C0C0C">WHICH ONE ACTUALLY FITS YOUR BUSINESS?</text>
<rect x="60" y="70" width="330" height="340" rx="14" fill="#FFFFFF" stroke="#0C0C0C" stroke-width="1.5"/>
<rect x="60" y="70" width="330" height="42" rx="14" fill="#00C853"/>
<rect x="60" y="98" width="330" height="14" fill="#00C853"/>
<text x="225" y="97" text-anchor="middle" font-size="13" font-weight="700" fill="#FFFFFF">AGENCY RETAINER FITS IF</text>
<g font-size="12.2" fill="#0C0C0C">
<circle cx="90" cy="145" r="9" fill="#00C853"/><path d="M86,145 l3,3 l6,-7" fill="none" stroke="#FFFFFF" stroke-width="2" stroke-linecap="round"/>
<text x="112" y="149">Ad spend is under $100K/mo</text>
<circle cx="90" cy="185" r="9" fill="#00C853"/><path d="M86,185 l3,3 l6,-7" fill="none" stroke="#FFFFFF" stroke-width="2" stroke-linecap="round"/>
<text x="112" y="189">You need several skill sets covered</text>
<circle cx="90" cy="225" r="9" fill="#00C853"/><path d="M86,225 l3,3 l6,-7" fill="none" stroke="#FFFFFF" stroke-width="2" stroke-linecap="round"/>
<text x="112" y="229">One person's PTO can't stall the account</text>
<circle cx="90" cy="265" r="9" fill="#00C853"/><path d="M86,265 l3,3 l6,-7" fill="none" stroke="#FFFFFF" stroke-width="2" stroke-linecap="round"/>
<text x="112" y="269">You want proof before you commit</text>
</g>
<rect x="410" y="70" width="330" height="340" rx="14" fill="#FFFFFF" stroke="#0C0C0C" stroke-width="1.5"/>
<rect x="410" y="70" width="330" height="42" rx="14" fill="#FF4438"/>
<rect x="410" y="98" width="330" height="14" fill="#FF4438"/>
<text x="575" y="97" text-anchor="middle" font-size="13" font-weight="700" fill="#FFFFFF">IN-HOUSE HIRE FITS IF</text>
<g font-size="12.2" fill="#0C0C0C">
<circle cx="440" cy="145" r="9" fill="none" stroke="#FF4438" stroke-width="2"/><line x1="435" y1="140" x2="445" y2="150" stroke="#FF4438" stroke-width="2"/><line x1="445" y1="140" x2="435" y2="150" stroke="#FF4438" stroke-width="2"/>
<text x="462" y="149">Ad spend is past $100K/mo</text>
<circle cx="440" cy="185" r="9" fill="none" stroke="#FF4438" stroke-width="2"/><line x1="435" y1="180" x2="445" y2="190" stroke="#FF4438" stroke-width="2"/><line x1="445" y1="180" x2="435" y2="190" stroke="#FF4438" stroke-width="2"/>
<text x="462" y="189">Role sits in daily brand decisions</text>
<circle cx="440" cy="225" r="9" fill="none" stroke="#FF4438" stroke-width="2"/><line x1="435" y1="220" x2="445" y2="230" stroke="#FF4438" stroke-width="2"/><line x1="445" y1="220" x2="435" y2="230" stroke="#FF4438" stroke-width="2"/>
<text x="462" y="229">You need one person embedded full-time</text>
<circle cx="440" cy="265" r="9" fill="none" stroke="#FF4438" stroke-width="2"/><line x1="435" y1="260" x2="445" y2="270" stroke="#FF4438" stroke-width="2"/><line x1="445" y1="260" x2="435" y2="270" stroke="#FF4438" stroke-width="2"/>
<text x="462" y="269">The $144K+ loaded cost is already proven out</text>
</g>
<text x="400" y="400" text-anchor="middle" font-size="11" fill="#7A7A78">Score your business against both columns before you commit to either one.</text>
</svg>
