<svg xmlns="http://www.w3.org/2000/svg" viewBox="0 0 800 450" font-family="'JetBrains Mono',monospace"><rect width="800" height="450" fill="#F4F4F2"/>
<text x="400" y="42" text-anchor="middle" font-size="16" font-weight="700" fill="#0C0C0C">WHAT EACH ONE ACTUALLY COVERS</text>
<rect x="60" y="70" width="330" height="340" rx="14" fill="#FFFFFF" stroke="#0C0C0C" stroke-width="1.5"/>
<rect x="60" y="70" width="330" height="42" rx="14" fill="#7A7A78"/>
<rect x="60" y="98" width="330" height="14" fill="#7A7A78"/>
<text x="225" y="97" text-anchor="middle" font-size="14" font-weight="700" fill="#FFFFFF">PPC MANAGEMENT</text>
<g font-size="12.5" fill="#0C0C0C">
<circle cx="90" cy="145" r="9" fill="#7A7A78"/><path d="M86,145 l3,3 l6,-7" fill="none" stroke="#FFFFFF" stroke-width="2" stroke-linecap="round"/>
<text x="112" y="149">Bid and budget adjustments</text>
<circle cx="90" cy="185" r="9" fill="#7A7A78"/><path d="M86,185 l3,3 l6,-7" fill="none" stroke="#FFFFFF" stroke-width="2" stroke-linecap="round"/>
<text x="112" y="189">Ad copy split tests</text>
<circle cx="90" cy="225" r="9" fill="#7A7A78"/><path d="M86,225 l3,3 l6,-7" fill="none" stroke="#FFFFFF" stroke-width="2" stroke-linecap="round"/>
<text x="112" y="229">Keyword pruning</text>
<circle cx="90" cy="265" r="9" fill="#7A7A78"/><path d="M86,265 l3,3 l6,-7" fill="none" stroke="#FFFFFF" stroke-width="2" stroke-linecap="round"/>
<text x="112" y="269">Weekly or monthly reports</text>
<circle cx="90" cy="305" r="9" fill="none" stroke="#7A7A78" stroke-width="2" stroke-dasharray="2 3"/>
<text x="112" y="309" fill="#7A7A78">Works inside whatever exists</text>
<circle cx="90" cy="345" r="9" fill="none" stroke="#7A7A78" stroke-width="2" stroke-dasharray="2 3"/>
<text x="112" y="349" fill="#7A7A78">No audit or rebuild included</text>
</g>
<rect x="410" y="70" width="330" height="340" rx="14" fill="#FFFFFF" stroke="#0C0C0C" stroke-width="1.5"/>
<rect x="410" y="70" width="330" height="42" rx="14" fill="#2D6BFF"/>
<rect x="410" y="98" width="330" height="14" fill="#2D6BFF"/>
<text x="575" y="97" text-anchor="middle" font-size="14" font-weight="700" fill="#FFFFFF">PPC AGENCY (FULL SYSTEM)</text>
<g font-size="12.5" fill="#0C0C0C">
<circle cx="440" cy="145" r="9" fill="#00C853"/><path d="M436,145 l3,3 l6,-7" fill="none" stroke="#FFFFFF" stroke-width="2" stroke-linecap="round"/>
<text x="462" y="149">Full account audit and rebuild</text>
<circle cx="440" cy="185" r="9" fill="#00C853"/><path d="M436,185 l3,3 l6,-7" fill="none" stroke="#FFFFFF" stroke-width="2" stroke-linecap="round"/>
<text x="462" y="189">Server-side conversion tracking</text>
<circle cx="440" cy="225" r="9" fill="#00C853"/><path d="M436,225 l3,3 l6,-7" fill="none" stroke="#FFFFFF" stroke-width="2" stroke-linecap="round"/>
<text x="462" y="229">Landing page strategy</text>
<circle cx="440" cy="265" r="9" fill="#00C853"/><path d="M436,265 l3,3 l6,-7" fill="none" stroke="#FFFFFF" stroke-width="2" stroke-linecap="round"/>
<text x="462" y="269">Creative direction</text>
<circle cx="440" cy="305" r="9" fill="#00C853"/><path d="M436,305 l3,3 l6,-7" fill="none" stroke="#FFFFFF" stroke-width="2" stroke-linecap="round"/>
<text x="462" y="309">Bid and budget management</text>
<circle cx="440" cy="345" r="9" fill="#00C853"/><path d="M436,345 l3,3 l6,-7" fill="none" stroke="#FFFFFF" stroke-width="2" stroke-linecap="round"/>
<text x="462" y="349">Revenue and CAC reporting</text>
</g>
</svg>
